<svg viewBox="-24 1 511 512" xmlns="http://www.w3.org/2000/svg"><path d="M9.316 212.414c0-57.062 23.344-110.613 65.73-150.793C116.97 21.883 172.583 0 231.653 0c59.036 0 114.63 21.863 156.543 61.563 42.38 40.136 65.743 93.648 65.79 150.671v.371zm0 0" fill="#465059"/><path d="M67.008 212.414c0-57.062 23.344-110.613 65.73-150.793 35.02-33.195 79.598-53.918 127.758-59.848A236.141 236.141 0 00231.652 0C172.582 0 116.97 21.883 75.047 61.621c-42.387 40.18-65.73 93.73-65.73 150.793l444.667.191v-.023zm0 0" fill="#3c474d"/><path d="M18.016 259.77c0 114.71 100.964 150.34 100.964 150.34h53.555v-75.17L71.47 253.473zm0 0" fill="#465059"/><path d="M59.223 259.77l17.5-2.063-5.254-4.234-53.453 6.297c0 114.71 100.964 150.34 100.964 150.34h41.207S59.224 374.48 59.224 259.77zm0 0" fill="#3c474d"/><path d="M445.285 259.77c0 114.71-100.96 150.34-100.96 150.34h-53.56v-75.17l101.067-81.468zm0 0" fill="#465059"/><path d="M372.348 454.45c-22.426-58.208-74.446-76.145-74.446-76.145H165.398s-46.425 15.996-70.476 66.847a130.992 130.992 0 00-3.977 9.301L149.203 512h164.895zm0 0" fill="#b9a8ff"/><path d="M121.852 454.453a130.992 130.992 0 013.976-9.3c24.05-50.856 70.477-66.848 70.477-66.848h-30.907s-46.425 15.992-70.476 66.847a130.992 130.992 0 00-3.977 9.301zm0 0" fill="#a394e0"/><path d="M462.8 226.34c0 22.465-18.21 40.672-40.671 40.672-22.465 0-40.676-18.207-40.676-40.672s18.211-40.676 40.676-40.676c22.46 0 40.672 18.211 40.672 40.676zM276.637 392.969c0 24.844-20.14 44.984-44.985 44.984s-44.984-20.14-44.984-44.984 20.14-44.985 44.984-44.985 44.985 20.141 44.985 44.985zm0 0" fill="#dfb297"/><path d="M422.129 212.383a172.185 172.185 0 00-4.05-37.137c-109.138 0-226.427-94.562-226.427-94.562-60.84 85.601-146.312 94.55-146.43 94.562a172.12 172.12 0 00-4.046 37.133v-.348.766-.348c.02 99.703 85.289 180.52 190.472 180.52 105.188 0 190.461-80.82 190.477-180.528v-.41.352zm0 0" fill="#fbc4ac"/><path d="M72.082 212.445v-.418.352c0-8.649.648-28.422 1.89-43.969-17.35 5.637-28.706 6.828-28.75 6.836-.761 3.453-1.41 6.95-1.96 10.473a39.9 39.9 0 00-2.086-.055C18.71 185.664.5 203.871.5 226.336c0 22.465 18.21 40.676 40.676 40.676 3.351 0 6.14-.414 8.476-1.18 24.032 73.637 96.422 127.133 182 127.133 5.203 0 10.356-.203 15.453-.59-97.96-7.457-175.003-85.156-175.023-179.93zm0 0" fill="#dfb297"/><path d="M331.148 227.594a7.729 7.729 0 01-7.726-7.727v-19.344c0-4.27 3.46-7.726 7.726-7.726a7.726 7.726 0 017.727 7.726v19.344a7.729 7.729 0 01-7.727 7.727zm0 0" fill="#3a484a"/><path d="M344.32 256.027h-26.347a7.724 7.724 0 01-7.727-7.726 7.726 7.726 0 017.727-7.727h26.347a7.726 7.726 0 017.727 7.727 7.724 7.724 0 01-7.727 7.726zm0 0" fill="#f98084"/><path d="M132.156 227.594a7.726 7.726 0 01-7.726-7.727v-19.344a7.724 7.724 0 017.726-7.726 7.726 7.726 0 017.727 7.726v19.344a7.729 7.729 0 01-7.727 7.727zm0 0" fill="#3a484a"/><path d="M145.328 256.027H118.98a7.726 7.726 0 110-15.453h26.348a7.726 7.726 0 017.727 7.727 7.724 7.724 0 01-7.727 7.726zm0 0" fill="#f98084"/><path d="M231.652 254.938c-9.164 0-17.773-3.833-23.613-10.516a7.728 7.728 0 01.73-10.902 7.728 7.728 0 0110.903.73c2.906 3.328 7.273 5.234 11.98 5.234 4.703 0 9.07-1.906 11.977-5.234a7.728 7.728 0 0110.902-.73c3.215 2.808 3.54 7.687.735 10.902-5.844 6.683-14.45 10.516-23.614 10.516zm0 0" fill="#3a484a"/><path d="M91.816 486.719c-8.664 0-15.691-7.028-15.691-15.692v-28.593c0-8.668 7.027-15.696 15.691-15.696 8.668 0 15.692 7.028 15.692 15.696v28.593c0 8.664-7.024 15.692-15.692 15.692zm0 0" fill="#dfb297"/><path d="M107.422 451.324a44.681 44.681 0 00-16.477 3.13c-22.402 8.857-33.882 35.08-25.304 57.546h83.566a44.685 44.685 0 002.938-15.953c0-24.7-20.024-44.723-44.723-44.723zm0 0" fill="#fbc4ac"/><path d="M371.484 486.719c8.668 0 15.692-7.028 15.692-15.692v-28.593c0-8.668-7.024-15.696-15.692-15.696-8.664 0-15.691 7.028-15.691 15.696v28.593c0 8.664 7.023 15.692 15.691 15.692zm0 0" fill="#dfb297"/><path d="M355.879 451.324c5.816 0 11.371 1.11 16.476 3.13 22.403 8.858 33.887 35.081 25.305 57.546h-83.562a44.602 44.602 0 01-2.942-15.953c0-24.7 20.024-44.723 44.723-44.723zm0 0" fill="#fbc4ac"/></svg>